<svg width="253" height="56" viewBox="0 0 253 56" fill="none" xmlns="http://www.w3.org/2000/svg">
<path d="M252.87 10.4172C250.806 11.3244 248.602 11.9424 246.281 12.2245C248.646 10.7997 250.465 8.55397 251.326 5.8745C249.108 7.16876 246.65 8.11089 244.033 8.63559C241.943 6.3992 238.964 5 235.657 5C229.32 5 224.182 10.1374 224.182 16.4664C224.182 17.3759 224.287 18.2504 224.478 19.0876C214.938 18.6375 206.483 14.0575 200.825 7.13378C199.829 8.81748 199.272 10.774 199.272 12.9055C199.272 16.8932 201.301 20.3982 204.375 22.4573C202.493 22.3967 200.722 21.879 199.178 21.0208V21.1631C199.178 26.7249 203.127 31.3632 208.382 32.4196C207.419 32.6785 206.402 32.8184 205.359 32.8184C204.627 32.8184 203.925 32.7485 203.223 32.6179C204.695 37.1723 208.925 40.493 213.961 40.5863C210.043 43.6622 205.077 45.4952 199.729 45.4952C198.819 45.4952 197.912 45.4415 197 45.3389C202.106 48.5897 208.121 50.4903 214.626 50.4903C235.743 50.4903 247.277 33.0096 247.277 17.875C247.277 17.3876 247.277 16.8955 247.242 16.4058C249.483 14.7991 251.44 12.7679 252.98 10.4639L252.87 10.4172Z" fill="white"/>
<path d="M27.9898 0C20.3859 0 19.4366 0.034963 16.451 0.167822C13.4701 0.307674 11.4408 0.776178 9.65649 1.46845C7.81616 2.18169 6.25339 3.13968 4.69762 4.69436C3.14186 6.24905 2.18087 7.8084 1.46947 9.64978C0.776717 11.4329 0.305555 13.4608 0.167939 16.4396C0.0279898 19.4231 0 20.3718 0 27.9704C0 35.569 0.0349873 36.5177 0.167939 39.5012C0.307888 42.4777 0.776717 44.5079 1.46947 46.291C2.18321 48.1277 3.14186 49.6917 4.69762 51.2464C6.25339 52.7988 7.81382 53.7614 9.65649 54.4723C11.4432 55.1623 13.4724 55.6354 16.451 55.773C19.4366 55.9128 20.3859 55.9408 27.9898 55.9408C35.5937 55.9408 36.543 55.9058 39.5286 55.773C42.5072 55.6331 44.5388 55.1623 46.3231 54.4723C48.1611 53.7591 49.7262 52.7988 51.282 51.2464C52.8354 49.6917 53.7988 48.1347 54.5102 46.291C55.2006 44.5079 55.6741 42.4777 55.8117 39.5012C55.9516 36.5177 55.9796 35.569 55.9796 27.9704C55.9796 20.3718 55.9446 19.4231 55.8117 16.4396C55.6717 13.4631 55.2006 11.4306 54.5102 9.64978C53.7964 7.81073 52.8354 6.24905 51.282 4.69436C49.7262 3.13968 48.1681 2.17936 46.3231 1.46845C44.5388 0.776178 42.5072 0.305343 39.5286 0.167822C36.543 0.0279704 35.5937 0 27.9898 0ZM27.9898 5.03467C35.4608 5.03467 36.3518 5.07196 39.3024 5.20016C42.0314 5.32836 43.5125 5.78055 44.4968 6.16747C45.8077 6.67327 46.736 7.27929 47.7203 8.25593C48.6976 9.23489 49.3041 10.1649 49.8102 11.4749C50.1927 12.4585 50.6499 13.9386 50.7735 16.6657C50.9065 19.6166 50.9368 20.5023 50.9368 27.9704C50.9368 35.4385 50.9018 36.3265 50.7642 39.2751C50.6219 42.0022 50.1671 43.4823 49.7822 44.4659C49.2597 45.7759 48.665 46.7036 47.6853 47.6872C46.708 48.6638 45.7633 49.2698 44.4665 49.7756C43.4868 50.1579 41.9824 50.6148 39.2534 50.7383C36.2818 50.8711 35.4071 50.9014 27.9198 50.9014C20.4302 50.9014 19.5556 50.8665 16.5863 50.729C13.855 50.5868 12.3505 50.1323 11.3709 49.7477C10.0437 49.2256 9.13168 48.6312 8.15437 47.6522C7.17239 46.6756 6.54495 45.7316 6.05513 44.4356C5.67027 43.4567 5.21777 41.9533 5.07549 39.2261C4.97052 36.2893 4.9332 35.3825 4.9332 27.9354C4.9332 20.486 4.97052 19.5769 5.07549 16.6051C5.21777 13.878 5.67027 12.3769 6.05513 11.3979C6.54495 10.0693 7.17239 9.1603 8.15437 8.17901C9.13168 7.20238 10.0437 6.57304 11.3709 6.08589C12.3505 5.69897 13.8223 5.24445 16.5513 5.1046C19.5252 4.99971 20.3999 4.96474 27.8849 4.96474L27.9898 5.03467ZM27.9898 13.6076C20.0477 13.6076 13.617 20.0408 13.617 27.9704C13.617 35.907 20.0547 42.3332 27.9898 42.3332C35.9319 42.3332 42.3626 35.9 42.3626 27.9704C42.3626 20.0338 35.9249 13.6076 27.9898 13.6076ZM27.9898 37.2939C22.835 37.2939 18.6599 33.1216 18.6599 27.9704C18.6599 22.8192 22.835 18.6469 27.9898 18.6469C33.1446 18.6469 37.3198 22.8192 37.3198 27.9704C37.3198 33.1216 33.1446 37.2939 27.9898 37.2939ZM46.2905 13.0412C46.2905 14.8942 44.7837 16.3976 42.9317 16.3976C41.0774 16.3976 39.5729 14.8919 39.5729 13.0412C39.5729 11.1905 41.0797 9.68708 42.9317 9.68708C44.7814 9.68475 46.2905 11.1905 46.2905 13.0412Z" fill="white"/>
<path d="M154.489 28.1414C154.489 12.5993 141.958 0 126.5 0C111.041 0 98.5098 12.5993 98.5098 28.1414C98.5098 42.1875 108.745 53.8296 122.126 55.9408V36.276H115.019V28.1414H122.126V21.9414C122.126 14.8885 126.305 10.9927 132.698 10.9927C135.761 10.9927 138.964 11.5423 138.964 11.5423V18.4677H135.435C131.957 18.4677 130.873 20.637 130.873 22.8624V28.1414H138.636L137.395 36.276H130.873V55.9408C144.254 53.8296 154.489 42.1875 154.489 28.1414Z" fill="white"/>
</svg>
