<svg width="110" height="103" viewBox="0 0 110 103" fill="none" xmlns="http://www.w3.org/2000/svg">
<path d="M57 35.5C57 45.165 48.2695 53 37.5 53H18V35.5C18 25.835 26.7304 18 37.5 18C48.2695 18 57 25.835 57 35.5Z" fill="white"/>
<path d="M96 35.5C96 25.835 87.2695 18 76.5 18H57V35.5C57 45.165 65.7305 53 76.5 53C87.2695 53 96 45.165 96 35.5Z" fill="white"/>
<path d="M18 71C18 80.9411 26.7304 89 37.5 89H57V71C57 61.0589 48.2695 53 37.5 53C26.7304 53 18 61.0589 18 71Z" fill="white"/>
<path d="M57 71C57 61.0589 65.7305 53 76.5 53H96V71C96 80.9411 87.2695 89 76.5 89C65.7305 89 57 80.9411 57 71Z" fill="white"/>
</svg>
